<svg id="Calque_1" data-name="Calque 1" xmlns="http://www.w3.org/2000/svg" viewBox="0 0 212.92 166.98"><path d="M57.65,258.52c-1.5-2.5-.72-4.34,1.85-4.45a2.22,2.22,0,0,0,1.41-.58c2.83-3,5.64-6,8.35-9.1a4.26,4.26,0,0,0,.59-2.14c.76-5.95,4.3-9.76,9.54-12.11,8.38-3.74,17.28-5.5,26.35-6.4a181.16,181.16,0,0,1,47,1.72,2.38,2.38,0,0,1,.71.39,30.28,30.28,0,0,1-3.3,0,88.14,88.14,0,0,0-26.82.94h31.92l-1.9-.94,7.81,1.51.2.72c-4.69,2.16-1.89,5.43-1.73,8.26H190c.31-1.29.53-2.2.82-3.38h5.51v3.14l5.25,3.59-.17.16c-5.19-3.36-10.57-3.88-16.12-1-3.21,1.69-4,4.7-2.17,7.89.53.93,1,1.91,1.48,2.87-4.11-5.23-9.11-7.88-15.82-7a18.75,18.75,0,0,0-12.46,7.2c-6.79,8.26-5.47,18.11-5.31,27.69a13.53,13.53,0,0,0,.41-3.53c.36-4.8.34-9.69,1.25-14.39,1.71-8.74,8.31-14.84,16.16-15.7,6.94-.77,14.19,4.67,15,11.64-1.72-.73-3.28-1.32-4.78-2-2.56-1.21-5-2.69-7.65-3.69s-5.47-1.49-8.07.54c4.44-1.4,8.15.45,11.85,2.48,2.32,1.27,4.66,2.53,7,3.67,1.84.87,3.73,1.42,4.72-1.24,6.27,4.19,10,9.88,12.36,16.82l-1.44-.37c.85,2.83,3,2.68,5.17,2.6,2.36-.08,4.73-.33,7.09-.36,4.64-.06,9.28,0,13.6,0q-3-9.74-5.92-19.5l-.63.19c.84,2.84,1.69,5.67,2.67,8.94l-6.5.71c2-1.89,2.42-4.38,1.06-6s-3.51-1.7-5.82-.13a19.53,19.53,0,0,1-2.87,1.35l7.71,4.69L211,265.43l8.32-1.07c.75,2.5,1.43,4.78,2.24,7.47l-13-.59c-.2.93-1.89,1.2-7.56.73-.53-1.82-.79-3.87-1.73-5.55a22.93,22.93,0,0,0-3.88-4.39c-2.32-2.37-4.63-4.74-7.06-7a5.73,5.73,0,0,1-1.49-7v3.28l2-.75a22.21,22.21,0,0,0,1.24,2.94c1.55,2.6,5.9,2.83,7.28.28s1.59-5-.36-7.34l-.55-1.09c-1.16-2.89-3.37-1.64-5.34-1.36,3.64-1.17,7.27-2.45,11.13-.82.46.19,1.11,0,1.67-.09l-.09.1c.19.8.38,1.59.58,2.45l1.74-.25c-3.33,2.67-1.24,6-2.09,9.09l1.51-.68c.15-2.27.27-4.21.39-6.14l.85,0q.65,3.11,1.28,6.21c.81-2.4-1.17-5.06,1.54-7,0,2-.31,4.12.17,6,.26,1.07,1.89,2.57,2.82,2.51a4.78,4.78,0,0,0,3.18-2.51c1.45-3,.43-5.78-1.8-8.14,1-.26,2-.89,2.91-.74,5.82,1,9.18,4.66,10.82,10.08l-.59.78-7.52-5.79c3.42,2.37,5,7.55,10.24,7.4l-1.56.46c.63,1.68,1.25,3.34,1.86,5-1.59-2.53-2.95-5.37-6.32-5.24,1,2.66,2.49,5.34,3.13,8.19s.49,5.94.69,8.92h.48v-8l.74,0c.08,1.7.17,3.39.25,5.09l.94,0v-8.95c2.86,8.31,1.38,15.74-4.83,22.6,8.19,1.22,16.46.5,24.16,3.22l.06,1.07c-3.84.54-7.67,1.26-11.53,1.57-38.6,3.13-77.29,3.3-116,2.79-22.27-.3-44.54-1.34-66.79-2.25a90.92,90.92,0,0,1-16.26-2.45c9.33-2.76,18.94-2.51,28.28-3.45-1.49-2.61-3.36-5.1-4.42-7.9-2.08-5.56-1.57-11.16.81-16.6a7.12,7.12,0,0,0,.22-2.24,9.94,9.94,0,0,0-2.28.61c-1.47.77-2.86,1.76-4-.43,1-.25,2.26-.23,3.08-.8,2.32-1.59,4.48-3.42,6.49-5-3.33-.52-5,5.11-9.47,2.76Zm8.48,18.53c.63.68,1.23,1.39,1.89,2a5.09,5.09,0,0,0,7.76-.19c4-4.35,4.07-13.75.11-18.15-2.72-3-7.2-2.59-8.7,1.24l.11-.11a13.47,13.47,0,0,0-1.57,2.49,16.39,16.39,0,0,0,.34,12L64.58,276c1.62,5.18,3.91,7.63,7,7.6,2.69,0,5-2.14,6.42-6.26-1.92,3.21-4,5.36-7.33,4.45C68.4,281.16,66.44,279.8,66.13,277.05Zm25.78-46.37h0l-2.71-.27,4.22-1.52c0,3.52.1,6.26,0,9-.11,2.07.76,2.49,2.67,2.46,7.58-.08,15.16,0,22.73,0h3.57c-.37-3.68-.88-7-1-10.41-.07-2.44-1-3.29-3.39-3.34-8.18-.17-16.36-.93-24.36,1.72-4.57,1.53-9.29,2.62-13.89,4.09-.91.29-1.57,1.37-2.35,2.09-3.26,2-6,4.33-6.63,8.32L93.42,240C92.92,236.92,92.41,233.8,91.91,230.68Zm32.36,13.76,5.73-.7L130,243a2.37,2.37,0,0,0-.75-.22q-23.31.48-46.61,1a32.42,32.42,0,0,0-5.35.71c-1.72.33-3.42.84-5.92,1.47l21.87-1.84c0,5.87,0,11.35,0,16.83,0,2.53,1,3.88,3.75,3.73,4.64-.24,9.29-.25,13.92-.5,3.84-.2,7.67-.61,11.46-.92.48,2.09.89,3.9,1.28,5.62H90.88c3,1.21,6.69-1.14,8.67,2,1.16-.51,1.93-1.14,2.7-1.14,6.45,0,12.89.11,19.34,0a3.57,3.57,0,0,1,3.67,2.22c2.61,4.86,6,6.78,10.28,6.12-6.85-.89-10.92-5.62-12.35-14.48a20.58,20.58,0,0,1,1.93-12.15,12.78,12.78,0,0,1,9-7.54,9.07,9.07,0,0,0-7.41,3.58c-2.83,3.32-3.84,7.28-4.23,11.53-.08.95-1,2.57-1.65,2.62q-12.17.92-24.39,1.33a3,3,0,0,1-2.17-2c-.18-5.54-.1-11.09-.1-16.78H123l.54,4.71.45-.05Zm-59,6.47c10.75-2.38,19.84,4.69,18.87,14.57l-4.1-.75c.5,2.15,1,4.55,1.64,6.89,1.54,5.44,3.57,6.57,9.16,5.3-.92-4.24-1.77-8.48-2.77-12.7a24.15,24.15,0,0,0-7.31-12.87C76,247.12,70.12,246.86,65.24,250.91Zm47.09,33.15v-.91a9.19,9.19,0,0,1-1.52-1.95c-1.16-3-3.69-3-6.27-3.17a75.46,75.46,0,0,0-15.82.37c-4.24.62-5,.63-6.77,5.23l2.75-2.28c1.46,1,2.65,2.57,3.89,2.6C96.49,284.17,104.41,284.06,112.33,284.06Zm73.52-47c-15.27.3-30.61,0-45.65,3.51a3.53,3.53,0,0,0,2,.39c11.47-.11,22.94-.62,34.4-.33C180.32,240.72,182.92,238.84,185.85,237.06Zm-54.26.68.14.43-6.61,3,.27.73c1.21,0,2.42.07,3.63,0a23,23,0,0,0,4.92-.57c1.85-.54,3.5-1.93,5.35-2.23,5.11-.84,10.28-1.29,15.44-1.9-5-2.08-13.3-2-29,.38-.18-1.47-.26-3-.57-4.41a35.2,35.2,0,0,0-1.19-3.69l-.89.29c.44,3.4.88,6.8,1.33,10.26Zm17.95,41.1a67.28,67.28,0,0,1-6.67,1.37c-2.32.23-4.91.71-7-.06-4.75-1.76-7.39-1.35-10.1,2.69h34.25c-.87-1.76-1.56-3.13-2.46-4.94-2.26,3.16-4.92,4.08-8.28,3.12Zm5.63-43.33c.57-5.16.13-5.76-4.81-5.66-3.47.06-7,.46-10.42.58-2.84.1-3.56,1.43-2.71,3.88Zm29.13,48.11h15c2.87,0,4.3-2,3.51-5.08-4.43.2-8.89.68-13.33.52C186.36,279,185,280.25,184.3,283.62Zm-5.41-13.23c0-3.84-1-7.3-3.86-10-3.13-3-7-3-10.12,0-5.21,4.91-5.15,15.5.11,20.34,3.2,2.94,7,2.9,10.11-.19A13.38,13.38,0,0,0,178.89,270.39Zm-53.72-10.14c.65,4.11,1.72,7.33,3.81,9.73,3.37,3.87,8.35,3.68,11.4-.43,3.74-5,3.34-13.32-.86-17.93-3.26-3.58-8.25-3.57-10.92.47C127,254.51,126.28,257.51,125.17,260.25Zm56.79,9c.1-1.75.19-3.13.27-4.51h.52l.27,4.89.51,0v-5.27h.35l.69,7.23h.21l.41-5.54.59,0-.5,10.3a26.38,26.38,0,0,0,.22-15.09,2.3,2.3,0,0,0-1.11-1.47c-1.79-.62-3.65-1-5-1.38C180.21,261.77,181,265.3,182,269.26Zm-55.4,8.06.17-.68a21.56,21.56,0,0,1-2.12-.81c-1.85-.95-3.76-.21-5.62-.22-9-.07-18,0-27,0C103.41,277.47,115,277,126.56,277.32Zm8.82-34.17c6.15,3.19,6.15,3.19,10.6,15.6.8-3.73,3.24-6.93.12-10.44C143.4,245.28,140.32,243.21,135.38,243.15Zm61.81,18.16c1.38.88,2.82,1.69,4.11,2.68,1.59,1.23,2.91.91,3.59-1.05a3.84,3.84,0,0,0-2.46-5.18C200.21,257,198.11,258.39,197.19,261.31Zm14.2,19.78v-.15c1.89-.09,3.77-.28,5.65-.24,2.18.05,2.05-1.32,2.09-2.81s-.41-2.45-2.23-2.38c-3.3.12-6.61.14-9.9.06-2-.05-3.12.27-3.13,2.74s1.1,3.05,3.28,2.81A40,40,0,0,1,211.39,281.09Zm-50.82-4.45c1.27,6.12,5,9.65,9.22,9.77,3.19.1,8.21-3.25,8.62-7.24C174.15,286.71,165.87,287,160.57,276.64ZM203.46,257c0-3.46-.21-6.4.06-9.29.29-3.08-1.18-4.15-3.09-4.38.19,4,.39,8,.61,12.48Zm-40.54-13.66-.09-.4H144.49l0,.4Zm-80.35,7.26a75.85,75.85,0,0,1,4.55,7.8,88.31,88.31,0,0,1,3.1,9.22C87.09,255,85.82,252.54,82.57,250.58Zm86.08,2.81c-5.49-.19-9.82,4.16-10,10.13C160.39,258.3,163,254.42,168.65,253.39Zm-60.59,17.9,1.09,2.88.53-1.95.77,2,1-.1c-.07-1.14-.13-2.29-.19-3.4H105.4l.94,2.37.45-1.71.66,1.21Zm18.56-37.67.11.58,7.73-1c-.77-.62-1.37-1.45-1.75-1.37C130.65,232.31,128.64,233,126.62,233.62Z" transform="translate(-37.54 -222.93)"/><path d="M144.09,374.71c6.75-10.72,13.49-20.88,19.62-31.41,2.58-4.44,5.33-6.21,10.62-6,11.24.52,22.53.16,33.85.61C202.44,339,196.7,340,191,341c-5.5,1-11,1.82-16.49,2.94a5.28,5.28,0,0,0-2.85,2.3q-12.85,20.25-25.56,40.6l-2,3.07c-2.64-4.21-5.13-8.15-7.6-12.1-6.67-10.68-13.3-21.38-20-32a4.71,4.71,0,0,0-2.83-1.89c-11-2-22-3.88-33-5.79a9,9,0,0,1-1.31-.65H95c7.67,0,15.35.07,23-.05a4.09,4.09,0,0,1,4,2.27C129.26,351.26,136.55,362.76,144.09,374.71Z" transform="translate(-37.54 -222.93)"/><path d="M229.05,298.81c5.67,0,11.16-.1,16.64,0,3.11.08,4.33,1.58,4.34,4.71,0,3.79-.12,7.59.05,11.38.13,2.7-.4,4.7-3.58,5.17l4,9.21c-.33.18-.48.32-.64.33-7.42.35-7.4.34-10.2-6.5-.47-1.15-1.09-2.23-1.64-3.34l-1,.18v9.53h-7.93Zm8.08,15.87c4.84.81,5,.73,5-3.69a34.37,34.37,0,0,0-.09-5.08,2.9,2.9,0,0,0-1.74-1.79,10.31,10.31,0,0,0-3.12-.07Z" transform="translate(-37.54 -222.93)"/><path d="M226.36,329.58h-8c-.35-2.25-.89-4.28-4.1-3.77-1.67.27-2.87.31-3.05,2.39-.05.55-1.18,1.37-1.88,1.44-2.05.19-4.14.07-6.52.07,2.51-10.43,5-20.58,7.41-30.79H219C221.43,309.05,223.85,319.12,226.36,329.58ZM215,311.28l-.65,0c-.54,3.19-1.09,6.38-1.66,9.76h3.87Z" transform="translate(-37.54 -222.93)"/><path d="M92.41,298.79c2.48,10.29,4.91,20.4,7.44,30.91-2.4,0-4.54.1-6.67-.06-.62-.05-1.67-.83-1.69-1.32-.17-3-2.32-2.25-4.11-2.46-2.12-.25-2.54,1-2.81,2.64a7,7,0,0,1-.36,1.06H76.29c2.38-9.95,4.69-19.69,7.13-29.41.15-.59,1.31-1.24,2-1.3C87.62,298.68,89.81,298.79,92.41,298.79Zm-6.33,22.14h4l-1.72-9.72h-.54Z" transform="translate(-37.54 -222.93)"/><path d="M139.54,298.81c.46,1.91.87,3.63,1.36,5.64-3,0-5.6.05-8.23,0-1.56,0-2.34.51-2.15,2.14a8,8,0,0,1,0,.85c.05,4.83-.57,4.36,4.43,4.39.95,0,1.9,0,2.85,0,2.15.07,3.36,1.14,3.36,3.35,0,3.41,0,6.82,0,10.23,0,2.76-1.61,4.18-4.3,4.24q-5.25.14-10.52,0c-1.92,0-2.29-.85-2.68-5.49,2.36,0,4.69-.1,7,0,2,.11,2.78-.71,2.55-2.65a6.53,6.53,0,0,1,0-1.71c.36-2.47-.63-3.28-3.15-3.26-7.41.07-7.41,0-7.41-7.57,0-1.8,0-3.6,0-5.4.07-3.32,1.28-4.69,4.62-4.8C131.23,298.71,135.21,298.81,139.54,298.81Z" transform="translate(-37.54 -222.93)"/><path d="M101.53,324.21c2.82,0,5.16-.08,7.5,0,1.82.08,2.66-.56,2.47-2.44a12.88,12.88,0,0,1,0-2.56c.22-2-.75-2.76-2.66-2.56a5.42,5.42,0,0,1-.57,0c-7.41-.08-7.41-.08-7.41-7.65v-5.68c0-2.77,1.52-4.14,4.13-4.47a16.54,16.54,0,0,1,2-.06h10.84l1.42,5.61c-2.9,0-5.52.07-8.13,0-1.74-.07-2.31.58-2.27,2.32.16,6-.62,5,4.87,5.1.94,0,1.89,0,2.83.06a2.7,2.7,0,0,1,2.84,2.89c0,3.59,0,7.19,0,10.79,0,2.7-1.59,4-4.11,4.06a94.56,94.56,0,0,1-10.78,0C101.3,329.37,102.71,326.33,101.53,324.21Z" transform="translate(-37.54 -222.93)"/><path d="M201,304.45h-8.86c0,6.3-.05,12.32.09,18.34,0,.48,1.21,1.28,1.92,1.34,2,.18,4.12.07,6.17.07,0,5.05-.43,5.51-4.85,5.5-2.27,0-4.55.07-6.82,0-3.52-.15-4.75-1.43-4.76-4.93q0-10.78,0-21.58c0-2.93,1.12-4.18,4.07-4.31a71.53,71.53,0,0,1,9.93,0C201.19,299.18,199.61,302.34,201,304.45Z" transform="translate(-37.54 -222.93)"/><path d="M164.78,304.38v13.9c0,5.87,0,5.86,5.76,5.93.83,0,1.67.1,2.48.16,0,4.94-.38,5.34-4.93,5.33-2.36,0-4.74.08-7.1-.06-3.15-.19-4.42-1.55-4.44-4.69,0-7.29,0-14.59,0-21.88,0-2.79,1.51-4.05,4-4.19,3.4-.2,6.81-.14,10.22,0a2.5,2.5,0,0,1,1.77,1.32,27.2,27.2,0,0,1,1,4.21Z" transform="translate(-37.54 -222.93)"/><path d="M53.06,329.66c-4,0-7.55.12-11.14,0-3.24-.14-4.34-1.4-4.36-4.7q0-10.8,0-21.61c0-3.17,1.23-4.4,4.49-4.51,2.17-.07,4.36,0,6.54,0,5,0,5,0,5.6,5.62H46v19.72H54.5Z" transform="translate(-37.54 -222.93)"/><path d="M65.82,324.13h8.43l-1.36,5.43H57.71V299h8.11Z" transform="translate(-37.54 -222.93)"/><path d="M144.89,298.94h7.77v30.58h-7.77Z" transform="translate(-37.54 -222.93)"/><path d="M149.26,353.16c-3.47-3.34-6.77-3.81-10.34,0,.55-1.84,1.11-3.68,1.72-5.75l-4.94-3.78c2.33-.19,4.66.26,6-.69s1.51-3.23,2.33-5.25c.9,2,1.23,4.38,2.56,5.35s3.57.38,5.84.5c-1.79,1.49-4.06,2.48-4.53,4S148.74,351.28,149.26,353.16Z" transform="translate(-37.54 -222.93)"/><path d="M201.62,239.65l2.21,3.53.09-.1c-1.59-.74-3.21-2.17-4.75-2.1-4.3.22-8.57,1.05-13,1.66.52-.39,1.06-1.13,1.71-1.23,3.61-.6,7.25-1.07,10.89-1.53a23.5,23.5,0,0,1,2.66-.07Z" transform="translate(-37.54 -222.93)"/><path d="M197,246.44l.8,5-3.64-1.24,2.41-.44v-.57l-3.64-.24-.15-.7,3.47-.85-1.91-2.06h2.11Z" transform="translate(-37.54 -222.93)"/><path d="M215.28,247.64v5l-.34,0c-.27-1-.54-2-.87-3.22L211,249.3l-.16-.73Z" transform="translate(-37.54 -222.93)"/><path d="M119.75,228.77c.37,3,.75,6.11,1.2,9.81H110.46c-2.08,0-4.17.14-6.24,0-1.08-.09-2.71,1-3.11-1.44-.18-1.11-5,0-6.24,1.45-.12-2-.24-4.07-.38-6.42a39.35,39.35,0,0,1,4-.45c6-.14,12.1-.31,18.15-.28,2.07,0,3.28-.44,3.16-2.71Z" transform="translate(-37.54 -222.93)"/><path d="M119.81,228.71c-5.1.06-10.2.08-15.3.19a70.46,70.46,0,0,1-9.07-.05,28.37,28.37,0,0,1,3.76-.54q9.51-.09,19,0a5.35,5.35,0,0,1,1.51.5Z" transform="translate(-37.54 -222.93)"/><path d="M91.91,230.68c.18,2.42.37,4.83.61,7.79-.73-.85-1-1.47-1.32-1.48-2.83-.11-5.68-.17-8.52-.1a1.88,1.88,0,0,0-1.4,1.1c-.08.44.6,1,1,1.52-1.65.28-3.33.52-5,.85s-3.07.7-5.47,1.25a17.22,17.22,0,0,1,2-2.2,34.64,34.64,0,0,1,15.15-6.74c1.15-.2,3.16.37,3-2Z" transform="translate(-37.54 -222.93)"/><path d="M162.88,272.47c.17,1.26.36,2.6.57,4.21-3.16-4.48-1.68-12.44,1.78-15.63a6.42,6.42,0,0,1,9.57.36c3.71,3.9,4.21,12.36,1,16.69-2.75,3.69-7.35,3.84-10,.12A38.5,38.5,0,0,1,162.88,272.47Zm1.17-5.24c.8,1.52,1.22,2.53,1.82,3.42a6.59,6.59,0,0,0,2.22,2.46c.9.38,2.15-.13,3.25-.14a26.56,26.56,0,0,1,2.79.3c-4-2.5-5.37-5.65-4.8-9.76-.32.93-.63,1.87-1,3l-2.75-2.19,1,4.25Zm5.48,11.59.65-.28c-.69-1.51-1.37-3-2.05-4.52l-.8.34v3.79h.37l.49-3C168.74,276.68,169.13,277.75,169.53,278.82Z" transform="translate(-37.54 -222.93)"/><path d="M127.38,261.91c.32,1.84.56,3.28.89,5.21-2.8-4.82-2.31-11.06.85-14.65,2.92-3.31,6.86-3.36,9.83-.12,3.45,3.75,4.06,11.39,1.25,15.65-2.63,4-7.26,4.13-10,.11C129,266.39,128.41,264.26,127.38,261.91Zm10.31,1.63c-1.05-1.22-2.48-2.34-3.15-3.81s-.71-3.48-1-5.13l-.88,2.24-2.18-1.09c.16,1.21.28,2.13.41,3.09l-2.1-.59c2.3,1.33.86,7.06,5.75,4.81.34,1.28.63,2.36.88,3.28l2.12-1Z" transform="translate(-37.54 -222.93)"/><path d="M67.19,262c4.58-3.76,8.28-2.66,10.14,3A14.35,14.35,0,0,1,77,275.29c-.82,2-2,3.72-4.47,3.81s-3.77-1.53-4.7-3.48a37.68,37.68,0,0,1-1.38-3.88l-.26,1.31c-1.36-3.9-.47-7.57,1.14-11.17Zm3.4,3.72-3,2.21a25.4,25.4,0,0,0,1.14,2.75,4.85,4.85,0,0,0,1.43,1.53c1,.7,2,1.3,3.22,2.08l1-.2a9,9,0,0,0-.46-3.15A59.78,59.78,0,0,0,70.59,265.71Z" transform="translate(-37.54 -222.93)"/><path d="M205.05,279.85v-3.16H218v3.16Z" transform="translate(-37.54 -222.93)"/></svg>